<svg width="8" height="9" viewBox="0 0 8 9" fill="none" xmlns="http://www.w3.org/2000/svg">
<path d="M0.570312 5.68809V7.11012C0.570312 7.89549 2.09945 8.53215 3.98575 8.53215C5.87204 8.53215 7.40118 7.89549 7.40118 7.11012V5.68809C7.40118 6.47346 5.87204 7.11012 3.98575 7.11012C2.09945 7.11012 0.570312 6.47346 0.570312 5.68809Z" fill="#18A1FA"/>
<path d="M0.570312 3.31805V4.74008C0.570312 5.52544 2.09945 6.1621 3.98575 6.1621C5.87204 6.1621 7.40118 5.52544 7.40118 4.74008V3.31805C7.40118 4.10341 5.87204 4.74008 3.98575 4.74008C2.09945 4.74008 0.570312 4.10341 0.570312 3.31805Z" fill="#18A1FA"/>
<path d="M7.40118 2.37003C7.40118 3.15539 5.87204 3.79206 3.98575 3.79206C2.09945 3.79206 0.570312 3.15539 0.570312 2.37003C0.570312 1.58466 2.09945 0.947998 3.98575 0.947998C5.87204 0.947998 7.40118 1.58466 7.40118 2.37003Z" fill="#18A1FA"/>
</svg>
