<svg width="11" height="13" viewBox="0 0 11 13" fill="none" xmlns="http://www.w3.org/2000/svg">
<path fill-rule="evenodd" clip-rule="evenodd" d="M1.75 5.75V4.25C1.75 3.25544 2.14509 2.30161 2.84835 1.59835C3.55161 0.895088 4.50544 0.5 5.5 0.5C6.49456 0.5 7.44839 0.895088 8.15165 1.59835C8.85491 2.30161 9.25 3.25544 9.25 4.25V5.75C9.64782 5.75 10.0294 5.90804 10.3107 6.18934C10.592 6.47064 10.75 6.85218 10.75 7.25V11C10.75 11.3978 10.592 11.7794 10.3107 12.0607C10.0294 12.342 9.64782 12.5 9.25 12.5H1.75C1.35218 12.5 0.970644 12.342 0.68934 12.0607C0.408035 11.7794 0.25 11.3978 0.25 11V7.25C0.25 6.85218 0.408035 6.47064 0.68934 6.18934C0.970644 5.90804 1.35218 5.75 1.75 5.75ZM7.75 4.25V5.75H3.25V4.25C3.25 3.65326 3.48705 3.08097 3.90901 2.65901C4.33097 2.23705 4.90326 2 5.5 2C6.09674 2 6.66903 2.23705 7.09099 2.65901C7.51295 3.08097 7.75 3.65326 7.75 4.25Z" fill="#9F9FA7"/>
</svg>
