<svg width="11" height="13" viewBox="0 0 11 13" fill="none" xmlns="http://www.w3.org/2000/svg">
<path d="M5.5 0.5C4.50544 0.5 3.55161 0.895088 2.84835 1.59835C2.14509 2.30161 1.75 3.25544 1.75 4.25V5.75C1.35218 5.75 0.970644 5.90804 0.68934 6.18934C0.408035 6.47064 0.25 6.85218 0.25 7.25V11C0.25 11.3978 0.408035 11.7794 0.68934 12.0607C0.970644 12.342 1.35218 12.5 1.75 12.5H9.25C9.64782 12.5 10.0294 12.342 10.3107 12.0607C10.592 11.7794 10.75 11.3978 10.75 11V7.25C10.75 6.85218 10.592 6.47064 10.3107 6.18934C10.0294 5.90804 9.64782 5.75 9.25 5.75H3.25V4.25C3.24981 3.70223 3.44946 3.17321 3.8115 2.76214C4.17354 2.35107 4.6731 2.08619 5.2165 2.01717C5.75991 1.94815 6.30982 2.07974 6.76313 2.38725C7.21644 2.69476 7.54199 3.15708 7.67875 3.6875C7.72848 3.88015 7.8527 4.04515 8.02408 4.14621C8.10894 4.19625 8.20283 4.22908 8.30038 4.24284C8.39793 4.25659 8.49724 4.251 8.59262 4.22638C8.68801 4.20175 8.77762 4.15858 8.85632 4.09933C8.93503 4.04008 9.00129 3.9659 9.05133 3.88104C9.10137 3.79618 9.13421 3.70229 9.14796 3.60474C9.16172 3.50719 9.15612 3.40789 9.1315 3.3125C8.9234 2.50757 8.45382 1.79457 7.7965 1.2855C7.13919 0.77643 6.33139 0.500129 5.5 0.5Z" fill="#1BC400"/>
</svg>
