<svg width="9" height="8" viewBox="0 0 9 8" fill="none" xmlns="http://www.w3.org/2000/svg">
<path d="M5.8502 1.69998C5.8502 2.05802 5.70796 2.4014 5.45479 2.65457C5.20162 2.90774 4.85824 3.04998 4.5002 3.04998C4.14215 3.04998 3.79878 2.90774 3.5456 2.65457C3.29243 2.4014 3.1502 2.05802 3.1502 1.69998C3.1502 1.34193 3.29243 0.998556 3.5456 0.745381C3.79878 0.492207 4.14215 0.349976 4.5002 0.349976C4.85824 0.349976 5.20162 0.492207 5.45479 0.745381C5.70796 0.998556 5.8502 1.34193 5.8502 1.69998ZM8.1002 2.59998C8.1002 2.83867 8.00537 3.06759 7.83659 3.23637C7.66781 3.40515 7.43889 3.49998 7.2002 3.49998C6.9615 3.49998 6.73258 3.40515 6.5638 3.23637C6.39502 3.06759 6.3002 2.83867 6.3002 2.59998C6.3002 2.36128 6.39502 2.13236 6.5638 1.96358C6.73258 1.7948 6.9615 1.69998 7.2002 1.69998C7.43889 1.69998 7.66781 1.7948 7.83659 1.96358C8.00537 2.13236 8.1002 2.36128 8.1002 2.59998ZM6.3002 5.74998C6.3002 5.27259 6.11055 4.81475 5.77299 4.47718C5.43542 4.13962 4.97759 3.94998 4.5002 3.94998C4.02281 3.94998 3.56497 4.13962 3.2274 4.47718C2.88984 4.81475 2.7002 5.27259 2.7002 5.74998V7.09998H6.3002V5.74998ZM2.7002 2.59998C2.7002 2.83867 2.60537 3.06759 2.43659 3.23637C2.26781 3.40515 2.03889 3.49998 1.8002 3.49998C1.5615 3.49998 1.33258 3.40515 1.1638 3.23637C0.995017 3.06759 0.900195 2.83867 0.900195 2.59998C0.900195 2.36128 0.995017 2.13236 1.1638 1.96358C1.33258 1.7948 1.5615 1.69998 1.8002 1.69998C2.03889 1.69998 2.26781 1.7948 2.43659 1.96358C2.60537 2.13236 2.7002 2.36128 2.7002 2.59998ZM7.2002 7.09998V5.74998C7.20085 5.29245 7.08468 4.84234 6.8627 4.44228C7.0622 4.39122 7.27073 4.3864 7.47238 4.4282C7.67403 4.46999 7.86347 4.55729 8.02625 4.68343C8.18903 4.80958 8.32085 4.97123 8.41165 5.15607C8.50245 5.34091 8.54984 5.54404 8.5502 5.74998V7.09998H7.2002ZM2.1377 4.44228C1.91573 4.84235 1.79956 5.29246 1.8002 5.74998V7.09998H0.450195V5.74998C0.450109 5.54389 0.497204 5.34053 0.587872 5.15546C0.678539 4.9704 0.810373 4.80855 0.973268 4.68231C1.13616 4.55608 1.3258 4.46882 1.52763 4.42721C1.72947 4.3856 1.93816 4.39075 2.1377 4.44228Z" fill="#E818FA"/>
</svg>
