<svg width="7" height="7" viewBox="0 0 7 7" fill="none" xmlns="http://www.w3.org/2000/svg">
<path d="M1.24998 0.349976C1.01128 0.349976 0.782362 0.444797 0.613579 0.613579C0.444797 0.782362 0.349976 1.01128 0.349976 1.24998V2.14998C0.349976 2.38867 0.444797 2.61759 0.613579 2.78637C0.782362 2.95515 1.01128 3.04998 1.24998 3.04998H2.14998C2.38867 3.04998 2.61759 2.95515 2.78637 2.78637C2.95515 2.61759 3.04998 2.38867 3.04998 2.14998V1.24998C3.04998 1.01128 2.95515 0.782362 2.78637 0.613579C2.61759 0.444797 2.38867 0.349976 2.14998 0.349976H1.24998ZM1.24998 3.94998C1.01128 3.94998 0.782362 4.0448 0.613579 4.21358C0.444797 4.38236 0.349976 4.61128 0.349976 4.84998V5.74998C0.349976 5.98867 0.444797 6.21759 0.613579 6.38637C0.782362 6.55515 1.01128 6.64998 1.24998 6.64998H2.14998C2.38867 6.64998 2.61759 6.55515 2.78637 6.38637C2.95515 6.21759 3.04998 5.98867 3.04998 5.74998V4.84998C3.04998 4.61128 2.95515 4.38236 2.78637 4.21358C2.61759 4.0448 2.38867 3.94998 2.14998 3.94998H1.24998ZM3.94998 1.24998C3.94998 1.01128 4.0448 0.782362 4.21358 0.613579C4.38236 0.444797 4.61128 0.349976 4.84998 0.349976H5.74998C5.98867 0.349976 6.21759 0.444797 6.38637 0.613579C6.55515 0.782362 6.64998 1.01128 6.64998 1.24998V2.14998C6.64998 2.38867 6.55515 2.61759 6.38637 2.78637C6.21759 2.95515 5.98867 3.04998 5.74998 3.04998H4.84998C4.61128 3.04998 4.38236 2.95515 4.21358 2.78637C4.0448 2.61759 3.94998 2.38867 3.94998 2.14998V1.24998ZM5.29998 3.94998C5.41932 3.94998 5.53378 3.99739 5.61817 4.08178C5.70257 4.16617 5.74998 4.28063 5.74998 4.39998V4.84998H6.19998C6.31932 4.84998 6.43378 4.89739 6.51817 4.98178C6.60257 5.06617 6.64998 5.18063 6.64998 5.29998C6.64998 5.41932 6.60257 5.53378 6.51817 5.61817C6.43378 5.70257 6.31932 5.74998 6.19998 5.74998H5.74998V6.19998C5.74998 6.31932 5.70257 6.43378 5.61817 6.51817C5.53378 6.60257 5.41932 6.64998 5.29998 6.64998C5.18063 6.64998 5.06617 6.60257 4.98178 6.51817C4.89739 6.43378 4.84998 6.31932 4.84998 6.19998V5.74998H4.39998C4.28063 5.74998 4.16617 5.70257 4.08178 5.61817C3.99739 5.53378 3.94998 5.41932 3.94998 5.29998C3.94998 5.18063 3.99739 5.06617 4.08178 4.98178C4.16617 4.89739 4.28063 4.84998 4.39998 4.84998H4.84998V4.39998C4.84998 4.28063 4.89739 4.16617 4.98178 4.08178C5.06617 3.99739 5.18063 3.94998 5.29998 3.94998Z" fill="#1BC400"/>
</svg>
